<svg width="18" height="18" viewBox="0 0 18 18" fill="none" xmlns="http://www.w3.org/2000/svg">
<path d="M4.15426 17.3536C4.34952 17.5488 4.6661 17.5488 4.86137 17.3536L8.04335 14.1716C8.23861 13.9763 8.23861 13.6597 8.04335 13.4645C7.84808 13.2692 7.5315 13.2692 7.33624 13.4645L4.50781 16.2929L1.67938 13.4645C1.48412 13.2692 1.16754 13.2692 0.972278 13.4645C0.777016 13.6597 0.777016 13.9763 0.972278 14.1716L4.15426 17.3536ZM4.50781 1L4.00781 1L4.00781 17L4.50781 17L5.00781 17L5.00781 1L4.50781 1Z" fill="white"/>
<path d="M13.846 0.646446C13.6507 0.451185 13.3341 0.451185 13.1389 0.646446L9.9569 3.82843C9.76163 4.02369 9.76163 4.34027 9.9569 4.53553C10.1522 4.7308 10.4687 4.7308 10.664 4.53553L13.4924 1.70711L16.3209 4.53553C16.5161 4.7308 16.8327 4.7308 17.028 4.53553C17.2232 4.34027 17.2232 4.02369 17.028 3.82843L13.846 0.646446ZM13.4924 17L13.9924 17L13.9924 1L13.4924 1L12.9924 1L12.9924 17L13.4924 17Z" fill="white"/>
</svg>
