<svg width="50" height="50" viewBox="0 0 50 50" fill="none" xmlns="http://www.w3.org/2000/svg">
<g clip-path="url(#clip0_20_390)">
<path d="M25 0C38.8065 0 50 11.1935 50 25C50 38.8065 38.806 50 25 50C11.194 50 0 38.8095 0 25C0 11.1905 11.192 0 25 0Z" fill="#53AE94"/>
<path d="M28.0856 21.669V17.95H36.5901V12.2835H13.4321V17.95H21.9376V21.666C15.0251 21.9835 9.82764 23.3525 9.82764 24.9925C9.82764 26.6325 15.0276 28.0015 21.9376 28.321V40.2335H28.0876V28.32C34.9876 28.0015 40.1746 26.6335 40.1746 24.995C40.1746 23.3565 34.9876 21.9885 28.0876 21.67M28.0876 27.311V27.308C27.9141 27.319 27.0226 27.3725 25.0376 27.3725C23.4506 27.3725 22.3341 27.3275 21.9406 27.307V27.312C15.8336 27.0415 11.2751 25.978 11.2751 24.7055C11.2751 23.433 15.8341 22.371 21.9406 22.1V26.2525C22.3406 26.28 23.4846 26.3475 25.0636 26.3475C26.9601 26.3475 27.9136 26.2685 28.0886 26.2525V22.1C34.1836 22.3715 38.7316 23.436 38.7316 24.704C38.7316 25.972 34.1816 27.037 28.0886 27.3085" fill="white"/>
</g>
<defs>
<clipPath id="clip0_20_390">
<rect width="50" height="50" fill="white"/>
</clipPath>
</defs>
</svg>
