<svg width="133" height="43" viewBox="0 0 133 43" fill="none" xmlns="http://www.w3.org/2000/svg">
<rect x="1" y="1" width="53" height="41" stroke="#33E1F9" stroke-width="2"/>
<path d="M69.8873 33.9242C70.2489 34.0355 70.5595 34.2811 70.8191 34.6612C71.0786 35.0321 71.2084 35.4585 71.2084 35.9406C71.2084 36.9697 70.8747 37.7392 70.2072 38.2491C69.5397 38.7497 68.5663 39 67.2869 39H61.5575C61.4555 39 61.3674 38.9629 61.2933 38.8887C61.2191 38.8146 61.182 38.7265 61.182 38.6245V29.6411C61.182 29.5391 61.2191 29.451 61.2933 29.3769C61.3674 29.3027 61.4555 29.2656 61.5575 29.2656H67.1478C68.4643 29.2656 69.4331 29.5067 70.0542 29.9887C70.6846 30.4616 70.9998 31.1801 70.9998 32.1442V32.1859C70.9998 32.6309 70.8793 33.011 70.6383 33.3262C70.3972 33.6415 70.1469 33.8408 69.8873 33.9242ZM67.2313 32.2694C67.2313 32.1025 67.1803 31.9588 67.0783 31.8383C66.9856 31.7178 66.8465 31.6575 66.6611 31.6575H64.7977V32.923H66.6611C66.8465 32.923 66.9856 32.8581 67.0783 32.7283C67.1803 32.5892 67.2313 32.4362 67.2313 32.2694ZM66.8141 36.6081C67.0273 36.6081 67.1849 36.5386 67.2869 36.3995C67.3981 36.2512 67.4538 36.089 67.4538 35.9128V35.8989C67.4538 35.7228 67.3935 35.5698 67.273 35.44C67.1617 35.3102 67.0088 35.2453 66.8141 35.2453H64.7977V36.6081H66.8141ZM75.5835 38.5272C75.463 38.8424 75.2544 39 74.9577 39H72.3294C72.246 39 72.1718 38.9722 72.1069 38.9166C72.0513 38.8517 72.0235 38.7775 72.0235 38.6941L72.0374 38.6106L75.0689 29.7245C75.106 29.604 75.1756 29.4974 75.2775 29.4047C75.3795 29.312 75.5186 29.2656 75.6947 29.2656H79.5607C79.7368 29.2656 79.8759 29.312 79.9778 29.4047C80.0798 29.4974 80.1494 29.604 80.1864 29.7245L83.218 38.6106L83.2319 38.6941C83.2319 38.7775 83.1995 38.8517 83.1346 38.9166C83.0789 38.9722 83.0094 39 82.926 39H80.2977C80.001 39 79.7924 38.8424 79.6719 38.5272L79.3243 37.5537H75.9311L75.5835 38.5272ZM77.6277 31.9495L76.6403 34.842H78.615L77.6277 31.9495ZM93.6144 29.2656C93.7164 29.2656 93.8045 29.3027 93.8787 29.3769C93.9528 29.451 93.9899 29.5391 93.9899 29.6411V38.6245C93.9899 38.7265 93.9528 38.8146 93.8787 38.8887C93.8045 38.9629 93.7164 39 93.6144 39H91.3755C91.153 39 90.9676 38.9027 90.8193 38.708L87.7877 34.842V38.6245C87.7877 38.7265 87.7506 38.8146 87.6765 38.8887C87.6023 38.9629 87.5142 39 87.4123 39H84.8257C84.7237 39 84.6356 38.9629 84.5615 38.8887C84.4873 38.8146 84.4502 38.7265 84.4502 38.6245V29.6411C84.4502 29.5391 84.4873 29.451 84.5615 29.3769C84.6356 29.3027 84.7237 29.2656 84.8257 29.2656H87.0785C87.301 29.2656 87.4818 29.3583 87.6209 29.5437L90.6524 33.7295V29.6411C90.6524 29.5391 90.6895 29.451 90.7637 29.3769C90.8378 29.3027 90.9259 29.2656 91.0279 29.2656H93.6144ZM106.681 38.5133C106.718 38.5689 106.737 38.6292 106.737 38.6941C106.737 38.7775 106.704 38.8517 106.639 38.9166C106.584 38.9722 106.514 39 106.431 39H102.843C102.63 39 102.463 38.9258 102.342 38.7775L99.9225 35.7877V38.6245C99.9225 38.7265 99.8854 38.8146 99.8112 38.8887C99.737 38.9629 99.649 39 99.547 39H96.6823C96.5803 39 96.4922 38.9629 96.4181 38.8887C96.3439 38.8146 96.3068 38.7265 96.3068 38.6245V29.6411C96.3068 29.5391 96.3439 29.451 96.4181 29.3769C96.4922 29.3027 96.5803 29.2656 96.6823 29.2656H99.547C99.649 29.2656 99.737 29.3027 99.8112 29.3769C99.8854 29.451 99.9225 29.5391 99.9225 29.6411V32.2555L102.12 29.502C102.259 29.3444 102.43 29.2656 102.634 29.2656H105.986C106.069 29.2656 106.139 29.2981 106.194 29.363C106.259 29.4186 106.292 29.4881 106.292 29.5716C106.292 29.6457 106.268 29.7106 106.222 29.7662L102.926 33.7852L106.681 38.5133Z" fill="white"/>
<path d="M64.6308 9.24531C64.6308 9.62542 64.7559 9.91745 65.0063 10.1214C65.2658 10.3254 65.6135 10.4273 66.0492 10.4273C66.4386 10.4273 66.726 10.3624 66.9114 10.2327C67.0968 10.1029 67.2544 9.90818 67.3842 9.64859C67.5047 9.40755 67.667 9.28703 67.8709 9.28703H70.8747C70.9581 9.28703 71.0277 9.31948 71.0833 9.38437C71.1482 9.44 71.1806 9.50953 71.1806 9.59297C71.1806 10.1585 70.9906 10.7147 70.6105 11.2617C70.2304 11.7994 69.6509 12.2491 68.8722 12.6106C68.1027 12.9629 67.1617 13.1391 66.0492 13.1391C65.0572 13.1391 64.1719 12.9907 63.3931 12.6941C62.6236 12.3881 62.0118 11.9246 61.5575 11.3034C61.1032 10.673 60.8761 9.88964 60.8761 8.95328V7.31234C60.8761 6.37599 61.1032 5.59724 61.5575 4.97609C62.0118 4.34568 62.6236 3.88213 63.3931 3.58547C64.1719 3.27953 65.0572 3.12656 66.0492 3.12656C67.1617 3.12656 68.1027 3.30734 68.8722 3.66891C69.6509 4.0212 70.2304 4.47083 70.6105 5.01781C70.9906 5.55552 71.1806 6.10714 71.1806 6.67266C71.1806 6.75609 71.1482 6.83026 71.0833 6.89516C71.0277 6.95078 70.9581 6.97859 70.8747 6.97859H67.8709C67.667 6.97859 67.5047 6.85807 67.3842 6.61703C67.2544 6.35745 67.0968 6.16276 66.9114 6.03297C66.726 5.90318 66.4386 5.83828 66.0492 5.83828C65.6135 5.83828 65.2658 5.94026 65.0063 6.14422C64.7559 6.34818 64.6308 6.64021 64.6308 7.02031V9.24531ZM83.1068 12.5689C83.1253 12.606 83.1346 12.6477 83.1346 12.6941C83.1346 12.7775 83.1021 12.8517 83.0372 12.9166C82.9816 12.9722 82.9121 13 82.8286 13H79.6719C79.5421 13 79.4216 12.9676 79.3103 12.9027C79.2084 12.8378 79.1342 12.7543 79.0878 12.6523L77.8641 9.89891H76.696V12.6245C76.696 12.7265 76.6589 12.8146 76.5847 12.8887C76.5106 12.9629 76.4225 13 76.3205 13H73.3168C73.2148 13 73.1267 12.9629 73.0525 12.8887C72.9784 12.8146 72.9413 12.7265 72.9413 12.6245V3.64109C72.9413 3.53911 72.9784 3.45104 73.0525 3.37687C73.1267 3.30271 73.2148 3.26562 73.3168 3.26562H78.7263C79.5607 3.26562 80.2884 3.40005 80.9096 3.66891C81.54 3.93776 82.0221 4.32714 82.3558 4.83703C82.6896 5.34693 82.8564 5.9449 82.8564 6.63094C82.8564 7.89177 82.3697 8.80495 81.3963 9.37047L83.1068 12.5689ZM78.4343 7.32625C78.6382 7.32625 78.7958 7.26135 78.9071 7.13156C79.0183 6.9925 79.0739 6.82099 79.0739 6.61703C79.0739 6.41307 79.0183 6.23693 78.9071 6.08859C78.8051 5.93099 78.6475 5.85219 78.4343 5.85219H76.696V7.32625H78.4343ZM94.3515 3.26562C94.4349 3.26562 94.5044 3.29807 94.5601 3.36297C94.625 3.41859 94.6574 3.48349 94.6574 3.55766C94.6574 3.61328 94.6435 3.66891 94.6157 3.72453L91.1113 9.52344V12.6245C91.1113 12.7265 91.0742 12.8146 91.0001 12.8887C90.9259 12.9629 90.8378 13 90.7359 13H87.7738C87.6718 13 87.5838 12.9629 87.5096 12.8887C87.4354 12.8146 87.3984 12.7265 87.3984 12.6245V9.52344L83.9079 3.72453C83.8801 3.66891 83.8662 3.61792 83.8662 3.57156C83.8662 3.48812 83.894 3.41859 83.9496 3.36297C84.0145 3.29807 84.0887 3.26562 84.1721 3.26562H87.1063C87.3659 3.26562 87.556 3.37224 87.6765 3.58547L89.2479 6.33891L90.861 3.61328C91.0001 3.38151 91.1948 3.26562 91.4451 3.26562H94.3515ZM102.356 3.26562C103.228 3.26562 103.988 3.41396 104.637 3.71062C105.286 4.00729 105.782 4.41057 106.125 4.92047C106.468 5.43036 106.639 6.00052 106.639 6.63094C106.639 7.66927 106.315 8.4851 105.666 9.07844C105.017 9.6625 103.914 9.95453 102.356 9.95453H100.52V12.6245C100.52 12.7265 100.483 12.8146 100.409 12.8887C100.335 12.9629 100.247 13 100.145 13H97.1551C97.0531 13 96.9651 12.9629 96.8909 12.8887C96.8167 12.8146 96.7796 12.7265 96.7796 12.6245V3.64109C96.7796 3.53911 96.8167 3.45104 96.8909 3.37687C96.9651 3.30271 97.0531 3.26562 97.1551 3.26562H102.356ZM102.3 7.38187C102.523 7.38187 102.699 7.31698 102.829 7.18719C102.959 7.04812 103.024 6.86734 103.024 6.64484C103.024 6.41307 102.959 6.22302 102.829 6.07469C102.699 5.92635 102.523 5.85219 102.3 5.85219H100.534V7.38187H102.3ZM117.411 3.26562C117.513 3.26562 117.601 3.30271 117.675 3.37687C117.749 3.45104 117.787 3.53911 117.787 3.64109V5.88C117.787 5.98198 117.749 6.07005 117.675 6.14422C117.601 6.21839 117.513 6.25547 117.411 6.25547H114.421V12.6245C114.421 12.7265 114.384 12.8146 114.31 12.8887C114.236 12.9629 114.148 13 114.046 13H111.181C111.079 13 110.991 12.9629 110.917 12.8887C110.843 12.8146 110.806 12.7265 110.806 12.6245V6.25547H107.816C107.714 6.25547 107.626 6.21839 107.552 6.14422C107.477 6.07005 107.44 5.98198 107.44 5.88V3.64109C107.44 3.53911 107.477 3.45104 107.552 3.37687C107.626 3.30271 107.714 3.26562 107.816 3.26562H117.411ZM129.462 8.98109C129.462 10.3995 128.99 11.4471 128.044 12.1239C127.108 12.8007 125.856 13.1391 124.289 13.1391C122.722 13.1391 121.466 12.8007 120.521 12.1239C119.584 11.4471 119.116 10.3903 119.116 8.95328V7.31234C119.116 6.36672 119.339 5.58333 119.784 4.96219C120.238 4.33177 120.854 3.86823 121.633 3.57156C122.412 3.2749 123.297 3.12656 124.289 3.12656C125.281 3.12656 126.162 3.2749 126.931 3.57156C127.71 3.86823 128.327 4.32713 128.781 4.94828C129.235 5.56943 129.462 6.34818 129.462 7.28453V8.98109ZM122.871 9.24531C122.871 9.62542 122.996 9.91745 123.246 10.1214C123.506 10.3254 123.854 10.4273 124.289 10.4273C124.725 10.4273 125.068 10.3254 125.318 10.1214C125.578 9.90818 125.708 9.61151 125.708 9.23141V7.03422C125.708 6.65411 125.578 6.36208 125.318 6.15812C125.068 5.9449 124.725 5.83828 124.289 5.83828C123.854 5.83828 123.506 5.94026 123.246 6.14422C122.996 6.34818 122.871 6.64021 122.871 7.02031V9.24531Z" fill="#33E1F9"/>
<path d="M64.6308 22.2453C64.6308 22.6254 64.7559 22.9174 65.0063 23.1214C65.2658 23.3254 65.6135 23.4273 66.0492 23.4273C66.4386 23.4273 66.726 23.3624 66.9114 23.2327C67.0968 23.1029 67.2544 22.9082 67.3842 22.6486C67.5047 22.4076 67.667 22.287 67.8709 22.287H70.8747C70.9581 22.287 71.0277 22.3195 71.0833 22.3844C71.1482 22.44 71.1806 22.5095 71.1806 22.593C71.1806 23.1585 70.9906 23.7147 70.6105 24.2617C70.2304 24.7994 69.6509 25.2491 68.8722 25.6106C68.1027 25.9629 67.1617 26.1391 66.0492 26.1391C65.0572 26.1391 64.1719 25.9907 63.3931 25.6941C62.6236 25.3881 62.0118 24.9246 61.5575 24.3034C61.1032 23.673 60.8761 22.8896 60.8761 21.9533V20.3123C60.8761 19.376 61.1032 18.5972 61.5575 17.9761C62.0118 17.3457 62.6236 16.8821 63.3931 16.5855C64.1719 16.2795 65.0572 16.1266 66.0492 16.1266C67.1617 16.1266 68.1027 16.3073 68.8722 16.6689C69.6509 17.0212 70.2304 17.4708 70.6105 18.0178C70.9906 18.5555 71.1806 19.1071 71.1806 19.6727C71.1806 19.7561 71.1482 19.8303 71.0833 19.8952C71.0277 19.9508 70.9581 19.9786 70.8747 19.9786H67.8709C67.667 19.9786 67.5047 19.8581 67.3842 19.617C67.2544 19.3574 67.0968 19.1628 66.9114 19.033C66.726 18.9032 66.4386 18.8383 66.0492 18.8383C65.6135 18.8383 65.2658 18.9403 65.0063 19.1442C64.7559 19.3482 64.6308 19.6402 64.6308 20.0203V22.2453ZM82.7591 21.9811C82.7591 23.3995 82.2863 24.4471 81.3407 25.1239C80.4043 25.8007 79.1527 26.1391 77.586 26.1391C76.0192 26.1391 74.763 25.8007 73.8174 25.1239C72.881 24.4471 72.4128 23.3903 72.4128 21.9533V20.3123C72.4128 19.3667 72.6353 18.5833 73.0803 17.9622C73.5346 17.3318 74.1511 16.8682 74.9299 16.5716C75.7086 16.2749 76.594 16.1266 77.586 16.1266C78.578 16.1266 79.4587 16.2749 80.2282 16.5716C81.0069 16.8682 81.6234 17.3271 82.0777 17.9483C82.532 18.5694 82.7591 19.3482 82.7591 20.2845V21.9811ZM76.1675 22.2453C76.1675 22.6254 76.2927 22.9174 76.543 23.1214C76.8026 23.3254 77.1502 23.4273 77.586 23.4273C78.0217 23.4273 78.3647 23.3254 78.615 23.1214C78.8746 22.9082 79.0044 22.6115 79.0044 22.2314V20.0342C79.0044 19.6541 78.8746 19.3621 78.615 19.1581C78.3647 18.9449 78.0217 18.8383 77.586 18.8383C77.1502 18.8383 76.8026 18.9403 76.543 19.1442C76.2927 19.3482 76.1675 19.6402 76.1675 20.0203V22.2453ZM91.153 23.1492H93.6701C93.7721 23.1492 93.8601 23.1863 93.9343 23.2605C94.0085 23.3346 94.0455 23.4227 94.0455 23.5247V25.6245C94.0455 25.7265 94.0085 25.8146 93.9343 25.8887C93.8601 25.9629 93.7721 26 93.6701 26H84.8535C84.7515 26 84.6635 25.9629 84.5893 25.8887C84.5151 25.8146 84.478 25.7265 84.478 25.6245V23.5247C84.478 23.4227 84.5151 23.3346 84.5893 23.2605C84.6635 23.1863 84.7515 23.1492 84.8535 23.1492H87.3984V19.1164H84.8535C84.7515 19.1164 84.6635 19.0793 84.5893 19.0052C84.5151 18.931 84.478 18.8429 84.478 18.7409V16.6411C84.478 16.5391 84.5151 16.451 84.5893 16.3769C84.6635 16.3027 84.7515 16.2656 84.8535 16.2656H93.6701C93.7721 16.2656 93.8601 16.3027 93.9343 16.3769C94.0085 16.451 94.0455 16.5391 94.0455 16.6411V18.7409C94.0455 18.8429 94.0085 18.931 93.9343 19.0052C93.8601 19.0793 93.7721 19.1164 93.6701 19.1164H91.153V23.1492ZM105.29 16.2656C105.392 16.2656 105.48 16.3027 105.554 16.3769C105.629 16.451 105.666 16.5391 105.666 16.6411V25.6245C105.666 25.7265 105.629 25.8146 105.554 25.8887C105.48 25.9629 105.392 26 105.29 26H103.051C102.829 26 102.643 25.9027 102.495 25.708L99.4635 21.842V25.6245C99.4635 25.7265 99.4265 25.8146 99.3523 25.8887C99.2781 25.9629 99.1901 26 99.0881 26H96.5015C96.3995 26 96.3115 25.9629 96.2373 25.8887C96.1631 25.8146 96.126 25.7265 96.126 25.6245V16.6411C96.126 16.5391 96.1631 16.451 96.2373 16.3769C96.3115 16.3027 96.3995 16.2656 96.5015 16.2656H98.7543C98.9768 16.2656 99.1576 16.3583 99.2967 16.5437L102.328 20.7295V16.6411C102.328 16.5391 102.365 16.451 102.439 16.3769C102.514 16.3027 102.602 16.2656 102.704 16.2656H105.29Z" fill="#33E1F9"/>
<path d="M12.328 21.68C12.328 22.1173 12.472 22.4533 12.76 22.688C13.0587 22.9227 13.4587 23.04 13.96 23.04C14.408 23.04 14.7387 22.9653 14.952 22.816C15.1653 22.6667 15.3467 22.4427 15.496 22.144C15.6347 21.8667 15.8213 21.728 16.056 21.728H19.512C19.608 21.728 19.688 21.7653 19.752 21.84C19.8267 21.904 19.864 21.984 19.864 22.08C19.864 22.7307 19.6453 23.3707 19.208 24C18.7707 24.6187 18.104 25.136 17.208 25.552C16.3227 25.9573 15.24 26.16 13.96 26.16C12.8187 26.16 11.8 25.9893 10.904 25.648C10.0187 25.296 9.31467 24.7627 8.792 24.048C8.26933 23.3227 8.008 22.4213 8.008 21.344V19.456C8.008 18.3787 8.26933 17.4827 8.792 16.768C9.31467 16.0427 10.0187 15.5093 10.904 15.168C11.8 14.816 12.8187 14.64 13.96 14.64C15.24 14.64 16.3227 14.848 17.208 15.264C18.104 15.6693 18.7707 16.1867 19.208 16.816C19.6453 17.4347 19.864 18.0693 19.864 18.72C19.864 18.816 19.8267 18.9013 19.752 18.976C19.688 19.04 19.608 19.072 19.512 19.072H16.056C15.8213 19.072 15.6347 18.9333 15.496 18.656C15.3467 18.3573 15.1653 18.1333 14.952 17.984C14.7387 17.8347 14.408 17.76 13.96 17.76C13.4587 17.76 13.0587 17.8773 12.76 18.112C12.472 18.3467 12.328 18.6827 12.328 19.12V21.68ZM25.7618 21.68C25.7618 22.1173 25.9058 22.4533 26.1938 22.688C26.4924 22.9227 26.8924 23.04 27.3938 23.04C27.8418 23.04 28.1724 22.9653 28.3858 22.816C28.5991 22.6667 28.7804 22.4427 28.9298 22.144C29.0684 21.8667 29.2551 21.728 29.4898 21.728H32.9458C33.0418 21.728 33.1218 21.7653 33.1858 21.84C33.2604 21.904 33.2978 21.984 33.2978 22.08C33.2978 22.7307 33.0791 23.3707 32.6418 24C32.2044 24.6187 31.5378 25.136 30.6418 25.552C29.7564 25.9573 28.6738 26.16 27.3938 26.16C26.2524 26.16 25.2338 25.9893 24.3378 25.648C23.4524 25.296 22.7484 24.7627 22.2258 24.048C21.7031 23.3227 21.4418 22.4213 21.4418 21.344V19.456C21.4418 18.3787 21.7031 17.4827 22.2258 16.768C22.7484 16.0427 23.4524 15.5093 24.3378 15.168C25.2338 14.816 26.2524 14.64 27.3938 14.64C28.6738 14.64 29.7564 14.848 30.6418 15.264C31.5378 15.6693 32.2044 16.1867 32.6418 16.816C33.0791 17.4347 33.2978 18.0693 33.2978 18.72C33.2978 18.816 33.2604 18.9013 33.1858 18.976C33.1218 19.04 33.0418 19.072 32.9458 19.072H29.4898C29.2551 19.072 29.0684 18.9333 28.9298 18.656C28.7804 18.3573 28.5991 18.1333 28.3858 17.984C28.1724 17.8347 27.8418 17.76 27.3938 17.76C26.8924 17.76 26.4924 17.8773 26.1938 18.112C25.9058 18.3467 25.7618 18.6827 25.7618 19.12V21.68ZM45.2435 20.16C45.6595 20.288 46.0168 20.5707 46.3155 21.008C46.6142 21.4347 46.7635 21.9253 46.7635 22.48C46.7635 23.664 46.3795 24.5493 45.6115 25.136C44.8435 25.712 43.7235 26 42.2515 26H35.6595C35.5422 26 35.4408 25.9573 35.3555 25.872C35.2702 25.7867 35.2275 25.6853 35.2275 25.568V15.232C35.2275 15.1147 35.2702 15.0133 35.3555 14.928C35.4408 14.8427 35.5422 14.8 35.6595 14.8H42.0915C43.6062 14.8 44.7208 15.0773 45.4355 15.632C46.1608 16.176 46.5235 17.0027 46.5235 18.112V18.16C46.5235 18.672 46.3848 19.1093 46.1075 19.472C45.8302 19.8347 45.5422 20.064 45.2435 20.16ZM42.1875 18.256C42.1875 18.064 42.1288 17.8987 42.0115 17.76C41.9048 17.6213 41.7448 17.552 41.5315 17.552H39.3875V19.008H41.5315C41.7448 19.008 41.9048 18.9333 42.0115 18.784C42.1288 18.624 42.1875 18.448 42.1875 18.256ZM41.7075 23.248C41.9528 23.248 42.1342 23.168 42.2515 23.008C42.3795 22.8373 42.4435 22.6507 42.4435 22.448V22.432C42.4435 22.2293 42.3742 22.0533 42.2355 21.904C42.1075 21.7547 41.9315 21.68 41.7075 21.68H39.3875V23.248H41.7075Z" fill="white"/>
</svg>
